<svg width="20" height="21" viewBox="0 0 20 21" fill="none" xmlns="http://www.w3.org/2000/svg">
<path d="M8.33335 6.63647C8.33335 7.18365 8.44113 7.72547 8.65052 8.23099C8.85992 8.73651 9.16683 9.19584 9.55374 9.58275C9.94065 9.96966 10.4 10.2766 10.9055 10.486C11.411 10.6954 11.9528 10.8031 12.5 10.8031C13.6051 10.8031 14.6649 10.3642 15.4463 9.58275C16.2277 8.80135 16.6667 7.74154 16.6667 6.63647C16.6667 5.53141 16.2277 4.4716 15.4463 3.6902C14.6649 2.90879 13.6051 2.46981 12.5 2.46981C11.9528 2.46981 11.411 2.57758 10.9055 2.78698C10.4 2.99637 9.94065 3.30329 9.55374 3.6902C9.16683 4.07711 8.85992 4.53644 8.65052 5.04196C8.44113 5.54748 8.33335 6.0893 8.33335 6.63647ZM11.2834 12.9281L9.16669 14.9948L10.8334 15.0115L13.75 17.9531L15 16.7115L11.2834 12.9281ZM5.83335 1.63647C4.93335 1.63647 4.16669 2.36981 4.16669 3.30314C4.16669 4.20314 4.90002 4.96981 5.83335 4.96981C6.73335 4.96981 7.50002 4.23647 7.50002 3.30314C7.50002 2.40314 6.75835 1.63647 5.83335 1.63647ZM7.99169 12.4698H10.3417L5.59169 17.2281L4.40835 16.0448L7.99169 12.4698ZM7.40002 11.8781L3.82502 15.4615L3.64169 15.6365C3.45002 15.3198 3.33335 14.9698 3.33335 14.5531V7.88647C3.33335 7.33394 3.55285 6.80404 3.94355 6.41334C4.33425 6.02263 4.86415 5.80314 5.41669 5.80314C5.96922 5.80314 6.49913 6.02263 6.88983 6.41334C7.28053 6.80404 7.50002 7.33394 7.50002 7.88647V11.7781L7.40002 11.8781Z" fill="#999999"/>
</svg>
