<svg width="48" height="49" viewBox="0 0 48 49" fill="none" xmlns="http://www.w3.org/2000/svg">
<path d="M8.7735 17.4054C8.2095 18.0774 7.311 18.6099 6.414 18.5319C6.2955 17.6259 6.74251 16.6554 7.2585 16.0539C7.821 15.3684 8.805 14.8764 9.603 14.8359C9.6975 15.7824 9.327 16.7124 8.7735 17.4054ZM9.594 18.7104C8.2905 18.6309 7.1715 19.4589 6.5535 19.4589C5.922 19.4589 4.97551 18.7494 3.94501 18.7734C2.60851 18.7899 1.35901 19.5534 0.679505 20.7819C-0.734994 23.2254 0.312005 26.8434 1.67101 28.8354C2.33551 29.8194 3.13051 30.8979 4.17901 30.8679C5.17051 30.8274 5.56951 30.2124 6.76501 30.2124C7.9755 30.2124 8.31901 30.8679 9.375 30.8439C10.4595 30.8274 11.1465 29.8599 11.811 28.8759C12.5685 27.7584 12.8805 26.6634 12.897 26.6094C12.8805 26.5854 10.7955 25.7814 10.7805 23.3589C10.764 21.3264 12.42 20.3589 12.4905 20.3034C11.5605 18.8979 10.092 18.7494 9.5925 18.7119L9.594 18.7104ZM17.118 15.9594V30.7419H19.3905V25.6884H22.533C25.3995 25.6884 27.4155 23.6964 27.4155 20.8209C27.4155 17.9394 25.44 15.9609 22.611 15.9609L17.118 15.9594ZM19.3905 17.8974H22.008C23.976 17.8974 25.1025 18.9594 25.1025 20.8269C25.1025 22.6944 23.976 23.7654 21.993 23.7654H19.3905V17.8974ZM31.554 30.8514C32.9835 30.8514 34.3035 30.1254 34.9065 28.9674H34.9545V30.7419H37.0545V23.3814C37.0545 21.2574 35.3685 19.8759 32.766 19.8759C30.36 19.8759 28.578 21.2739 28.5165 23.1879H30.555C30.7275 22.2744 31.5555 21.6804 32.7045 21.6804C34.095 21.6804 34.869 22.3359 34.869 23.5404V24.3519L32.0415 24.5244C29.4 24.6879 27.978 25.7739 27.978 27.6729C27.978 29.5869 29.448 30.8529 31.5555 30.8529L31.554 30.8514ZM32.172 29.1009C30.96 29.1009 30.1875 28.5144 30.1875 27.6174C30.1875 26.6874 30.93 26.1399 32.343 26.0529L34.8675 25.8969V26.7324C34.8675 28.1169 33.7035 29.1009 32.163 29.1009H32.172ZM39.8595 34.7649C42.069 34.7649 43.11 33.9054 44.016 31.3194L48 20.0229H45.696L43.0245 28.7484H42.9765L40.305 20.0229H37.9305L41.775 30.7809L41.571 31.4364C41.2185 32.5389 40.6575 32.9664 39.657 32.9664C39.477 32.9664 39.1335 32.9439 38.9925 32.9289V34.7034C39.1245 34.7409 39.6885 34.7574 39.852 34.7574L39.8595 34.7649Z" fill="#999999"/>
</svg>
