<svg width="16" height="16" viewBox="0 0 16 16" fill="none" xmlns="http://www.w3.org/2000/svg">
<path d="M13.3333 3.9696V7.9696H2.66663M7.99996 3.9696V11.9696M2.66663 3.9696V11.9696" stroke="#999999" stroke-width="1.5" stroke-linecap="round" stroke-linejoin="round"/>
<path d="M14.6666 2.63631C14.6666 2.98993 14.5262 3.32907 14.2761 3.57912C14.0261 3.82917 13.6869 3.96965 13.3333 3.96965C12.9797 3.96965 12.6406 3.82917 12.3905 3.57912C12.1405 3.32907 12 2.98993 12 2.63631C12 2.28269 12.1405 1.94355 12.3905 1.6935C12.6406 1.44345 12.9797 1.30298 13.3333 1.30298C13.6869 1.30298 14.0261 1.44345 14.2761 1.6935C14.5262 1.94355 14.6666 2.28269 14.6666 2.63631ZM9.33331 2.63631C9.33331 2.98993 9.19284 3.32907 8.94279 3.57912C8.69274 3.82917 8.3536 3.96965 7.99998 3.96965C7.64636 3.96965 7.30722 3.82917 7.05717 3.57912C6.80712 3.32907 6.66665 2.98993 6.66665 2.63631C6.66665 2.28269 6.80712 1.94355 7.05717 1.6935C7.30722 1.44345 7.64636 1.30298 7.99998 1.30298C8.3536 1.30298 8.69274 1.44345 8.94279 1.6935C9.19284 1.94355 9.33331 2.28269 9.33331 2.63631ZM3.99998 2.63631C3.99998 2.98993 3.8595 3.32907 3.60946 3.57912C3.35941 3.82917 3.02027 3.96965 2.66665 3.96965C2.31302 3.96965 1.97389 3.82917 1.72384 3.57912C1.47379 3.32907 1.33331 2.98993 1.33331 2.63631C1.33331 2.28269 1.47379 1.94355 1.72384 1.6935C1.97389 1.44345 2.31302 1.30298 2.66665 1.30298C3.02027 1.30298 3.35941 1.44345 3.60946 1.6935C3.8595 1.94355 3.99998 2.28269 3.99998 2.63631ZM9.33331 13.303C9.33331 13.6566 9.19284 13.9957 8.94279 14.2458C8.69274 14.4958 8.3536 14.6363 7.99998 14.6363C7.64636 14.6363 7.30722 14.4958 7.05717 14.2458C6.80712 13.9957 6.66665 13.6566 6.66665 13.303C6.66665 12.9494 6.80712 12.6102 7.05717 12.3602C7.30722 12.1101 7.64636 11.9696 7.99998 11.9696C8.3536 11.9696 8.69274 12.1101 8.94279 12.3602C9.19284 12.6102 9.33331 12.9494 9.33331 13.303ZM3.99998 13.303C3.99998 13.6566 3.8595 13.9957 3.60946 14.2458C3.35941 14.4958 3.02027 14.6363 2.66665 14.6363C2.31302 14.6363 1.97389 14.4958 1.72384 14.2458C1.47379 13.9957 1.33331 13.6566 1.33331 13.303C1.33331 12.9494 1.47379 12.6102 1.72384 12.3602C1.97389 12.1101 2.31302 11.9696 2.66665 11.9696C3.02027 11.9696 3.35941 12.1101 3.60946 12.3602C3.8595 12.6102 3.99998 12.9494 3.99998 13.303ZM13.3333 14.6363C13.6869 14.6363 14.0261 14.4958 14.2761 14.2458C14.5262 13.9957 14.6666 13.6566 14.6666 13.303C14.6666 12.9494 14.5262 12.6102 14.2761 12.3602C14.0261 12.1101 13.6869 11.9696 13.3333 11.9696C12.9797 11.9696 12.6406 12.1101 12.3905 12.3602C12.1405 12.6102 12 12.9494 12 13.303C12 13.6566 12.1405 13.9957 12.3905 14.2458C12.6406 14.4958 12.9797 14.6363 13.3333 14.6363Z" stroke="#999999" stroke-width="1.5" stroke-linecap="round" stroke-linejoin="round"/>
</svg>
