<svg width="42" height="43" viewBox="0 0 42 43" fill="none" xmlns="http://www.w3.org/2000/svg">
<g filter="url(#filter0_b_56_2736)">
<rect y="0.870117" width="42" height="42" rx="2" fill="#999999" fill-opacity="0.2"/>
<path d="M21.1594 13.8639L16.6219 17.5389C15.8672 18.1482 15.7219 19.2451 16.2938 20.0279C16.8984 20.8623 18.075 21.0264 18.8859 20.3936L23.5406 16.7748C23.8688 16.5217 24.3375 16.5779 24.5953 16.9061C24.8531 17.2342 24.7922 17.7029 24.4641 17.9607L23.4844 18.7201L30 24.7201V15.8701H29.9672L29.7844 15.7529L26.3812 13.5732C25.6641 13.1139 24.825 12.8701 23.9719 12.8701C22.95 12.8701 21.9562 13.2217 21.1594 13.8639ZM22.2281 19.6951L19.8047 21.5795C18.3281 22.7326 16.1859 22.4326 15.0797 20.9139C14.0391 19.4842 14.3016 17.4873 15.675 16.3764L19.575 13.2217C19.0312 12.992 18.4453 12.8748 17.85 12.8748C16.9688 12.8701 16.1109 13.1326 15.375 13.6201L12 15.8701V26.3701H13.3219L17.6063 30.2795C18.525 31.1186 19.9453 31.0529 20.7844 30.1342C21.0422 29.8482 21.2156 29.5154 21.3047 29.1686L22.1016 29.8998C23.0156 30.7389 24.4406 30.6779 25.2797 29.7639C25.4906 29.5342 25.6453 29.267 25.7438 28.9904C26.6531 29.5998 27.8906 29.4732 28.6547 28.6389C29.4937 27.7248 29.4328 26.2998 28.5187 25.4607L22.2281 19.6951ZM6.75 15.8701C6.3375 15.8701 6 16.2076 6 16.6201V26.3701C6 27.1998 6.67031 27.8701 7.5 27.8701H9C9.82969 27.8701 10.5 27.1998 10.5 26.3701V15.8701H6.75ZM8.25 24.8701C8.44891 24.8701 8.63968 24.9491 8.78033 25.0898C8.92098 25.2304 9 25.4212 9 25.6201C9 25.819 8.92098 26.0098 8.78033 26.1504C8.63968 26.2911 8.44891 26.3701 8.25 26.3701C8.05109 26.3701 7.86032 26.2911 7.71967 26.1504C7.57902 26.0098 7.5 25.819 7.5 25.6201C7.5 25.4212 7.57902 25.2304 7.71967 25.0898C7.86032 24.9491 8.05109 24.8701 8.25 24.8701ZM31.5 15.8701V26.3701C31.5 27.1998 32.1703 27.8701 33 27.8701H34.5C35.3297 27.8701 36 27.1998 36 26.3701V16.6201C36 16.2076 35.6625 15.8701 35.25 15.8701H31.5ZM33 25.6201C33 25.4212 33.079 25.2304 33.2197 25.0898C33.3603 24.9491 33.5511 24.8701 33.75 24.8701C33.9489 24.8701 34.1397 24.9491 34.2803 25.0898C34.421 25.2304 34.5 25.4212 34.5 25.6201C34.5 25.819 34.421 26.0098 34.2803 26.1504C34.1397 26.2911 33.9489 26.3701 33.75 26.3701C33.5511 26.3701 33.3603 26.2911 33.2197 26.1504C33.079 26.0098 33 25.819 33 25.6201Z" fill="#999999"/>
</g>
<defs>
<filter id="filter0_b_56_2736" x="-4" y="-3.12988" width="50" height="50" filterUnits="userSpaceOnUse" color-interpolation-filters="sRGB">
<feFlood flood-opacity="0" result="BackgroundImageFix"/>
<feGaussianBlur in="BackgroundImageFix" stdDeviation="2"/>
<feComposite in2="SourceAlpha" operator="in" result="effect1_backgroundBlur_56_2736"/>
<feBlend mode="normal" in="SourceGraphic" in2="effect1_backgroundBlur_56_2736" result="shape"/>
</filter>
</defs>
</svg>
