<svg width="35" height="35" viewBox="0 0 35 35" fill="none" xmlns="http://www.w3.org/2000/svg">
<rect x="0.888428" y="1.27203" width="33" height="33" rx="16.5" fill="white"/>
<rect x="0.888428" y="1.27203" width="33" height="33" rx="16.5" stroke="#F1F5F9"/>
<path d="M21.7484 19.772C21.8284 19.112 21.8884 18.452 21.8884 17.772C21.8884 17.092 21.8284 16.432 21.7484 15.772H25.1284C25.2884 16.412 25.3884 17.082 25.3884 17.772C25.3884 18.462 25.2884 19.132 25.1284 19.772M19.9784 25.332C20.5784 24.222 21.0384 23.022 21.3584 21.772H24.3084C23.3396 23.4403 21.8025 24.704 19.9784 25.332ZM19.7284 19.772H15.0484C14.9484 19.112 14.8884 18.452 14.8884 17.772C14.8884 17.092 14.9484 16.422 15.0484 15.772H19.7284C19.8184 16.422 19.8884 17.092 19.8884 17.772C19.8884 18.452 19.8184 19.112 19.7284 19.772ZM17.3884 25.732C16.5584 24.532 15.8884 23.202 15.4784 21.772H19.2984C18.8884 23.202 18.2184 24.532 17.3884 25.732ZM13.3884 13.772H10.4684C11.4271 12.0991 12.9631 10.8333 14.7884 10.212C14.1884 11.322 13.7384 12.522 13.3884 13.772ZM10.4684 21.772H13.3884C13.7384 23.022 14.1884 24.222 14.7884 25.332C12.9667 24.7043 11.4327 23.4402 10.4684 21.772ZM9.64843 19.772C9.48843 19.132 9.38843 18.462 9.38843 17.772C9.38843 17.082 9.48843 16.412 9.64843 15.772H13.0284C12.9484 16.432 12.8884 17.092 12.8884 17.772C12.8884 18.452 12.9484 19.112 13.0284 19.772M17.3884 9.80203C18.2184 11.002 18.8884 12.342 19.2984 13.772H15.4784C15.8884 12.342 16.5584 11.002 17.3884 9.80203ZM24.3084 13.772H21.3584C21.045 12.5336 20.5815 11.3381 19.9784 10.212C21.8184 10.842 23.3484 12.112 24.3084 13.772ZM17.3884 7.77203C11.8584 7.77203 7.38843 12.272 7.38843 17.772C7.38843 20.4242 8.442 22.9677 10.3174 24.8431C11.2459 25.7717 12.3483 26.5083 13.5616 27.0108C14.7748 27.5134 16.0752 27.772 17.3884 27.772C20.0406 27.772 22.5841 26.7185 24.4595 24.8431C26.3349 22.9677 27.3884 20.4242 27.3884 17.772C27.3884 16.4588 27.1298 15.1585 26.6272 13.9452C26.1247 12.7319 25.3881 11.6296 24.4595 10.701C23.5309 9.77238 22.4285 9.03579 21.2153 8.53324C20.002 8.03069 18.7016 7.77203 17.3884 7.77203Z" fill="#202020"/>
</svg>
