<svg width="55" height="56" viewBox="0 0 55 56" fill="none" xmlns="http://www.w3.org/2000/svg">
<g clip-path="url(#clip0_315_550)">
<path d="M9.08145 16.9152C7.39769 16.9145 5.74694 17.3823 4.31384 18.2662C2.88074 19.1501 1.7218 20.4153 0.966661 21.9202C0.330246 23.1854 -0.0012207 24.582 -0.0012207 25.9982C-0.0012207 27.4145 0.330246 28.8111 0.966661 30.0763C1.7218 31.5812 2.88074 32.8464 4.31384 33.7303C5.74694 34.6142 7.39769 35.0819 9.08145 35.0813C11.5335 35.0813 13.596 34.2746 15.1017 32.8881C16.8158 31.3069 17.8058 28.9694 17.8058 26.2056C17.8023 25.5866 17.7487 24.9689 17.6454 24.3586H9.08375V27.8556H13.9879C13.8875 28.4141 13.6753 28.9465 13.3643 29.4209C13.0532 29.8954 12.6495 30.3023 12.1775 30.6171C11.3617 31.1694 10.3121 31.4856 9.08375 31.4856C6.71416 31.4856 4.70437 29.8883 3.98479 27.7365C3.60559 26.6087 3.60559 25.3878 3.98479 24.26C4.70437 22.1058 6.71416 20.5108 9.08375 20.5108C10.3786 20.4892 11.63 20.9782 12.5671 21.8721L15.1612 19.2825C13.5186 17.7359 11.3375 16.8872 9.08145 16.9152ZM23.9796 18.1756V33.9881H26.01V27.5829H29.3673C30.7484 27.5829 31.911 27.1338 32.8552 26.2354C33.3253 25.8142 33.6988 25.2963 33.95 24.7172C34.2012 24.1381 34.3241 23.5115 34.3104 22.8804C34.32 22.2526 34.195 21.6301 33.944 21.0546C33.6931 20.479 33.3218 19.9639 32.8552 19.5438C32.3928 19.0968 31.8466 18.7457 31.248 18.5105C30.6494 18.2753 30.0103 18.1607 29.3673 18.1733L23.9796 18.1756ZM29.5415 20.1236C29.8957 20.1303 30.245 20.2077 30.5689 20.3513C30.8928 20.495 31.1847 20.7019 31.4275 20.96C31.6857 21.2112 31.8909 21.5115 32.0311 21.8433C32.1712 22.1751 32.2434 22.5317 32.2434 22.8919C32.2434 23.2521 32.1712 23.6086 32.0311 23.9404C31.8909 24.2723 31.6857 24.5726 31.4275 24.8238C31.168 25.0927 30.8552 25.3043 30.5091 25.4452C30.163 25.5861 29.7912 25.6531 29.4177 25.6419H26.01V20.1236H29.5415ZM38.9923 22.8163C37.0642 22.8163 35.6075 23.5229 34.6221 24.9361L36.4119 26.0613C37.0719 25.1049 37.9694 24.6267 39.1046 24.6267C39.8285 24.6167 40.5294 24.8811 41.0662 25.3669C41.332 25.5847 41.5453 25.8595 41.6905 26.1708C41.8357 26.4822 41.909 26.8223 41.905 27.1658V27.6288C41.1258 27.1857 40.1328 26.9649 38.9258 26.9665C37.5111 26.9665 36.3813 27.298 35.5365 27.9611C34.6885 28.6211 34.2653 29.511 34.2669 30.6308C34.2583 31.134 34.3618 31.6328 34.5699 32.091C34.778 32.5492 35.0855 32.9554 35.47 33.28C36.2721 33.9874 37.269 34.3411 38.4606 34.3411C39.8585 34.3411 40.9776 33.7223 41.8179 32.4848H41.905V33.9858H43.8483V27.3194C43.8483 25.9215 43.4144 24.8215 42.5467 24.0194C41.6758 23.2173 40.491 22.8163 38.9923 22.8163ZM44.1783 23.1692L48.6379 33.3029L46.1217 38.7571H48.2185L54.9996 23.1669H52.7881L49.6531 30.9379H49.6073L46.3852 23.1692H44.1783ZM39.2604 28.5958C40.3925 28.5958 41.2756 28.8479 41.9096 29.3521C41.9096 30.2046 41.5735 30.9479 40.9012 31.5819C40.6022 31.8834 40.2462 32.1225 39.854 32.2853C39.4618 32.4482 39.0411 32.5316 38.6165 32.5306C38.0437 32.5417 37.4849 32.3538 37.0352 31.999C36.8262 31.8473 36.6563 31.6481 36.5395 31.4178C36.4228 31.1874 36.3625 30.9326 36.3638 30.6744C36.3638 30.0892 36.641 29.595 37.1956 29.1917C37.7456 28.7945 38.4354 28.5958 39.2604 28.5958Z" fill="#999999"/>
</g>
<defs>
<clipPath id="clip0_315_550">
<rect width="55" height="55" fill="white" transform="translate(0 0.334961)"/>
</clipPath>
</defs>
</svg>
