<svg width="24" height="25" viewBox="0 0 24 25" fill="none" xmlns="http://www.w3.org/2000/svg">
<path d="M13.0276 2.87891C14.1526 2.88191 14.7236 2.88791 15.2166 2.90191L15.4106 2.90891C15.6346 2.91691 15.8556 2.92691 16.1226 2.93891C17.1866 2.98891 17.9126 3.15691 18.5496 3.40391C19.2096 3.65791 19.7656 4.00191 20.3216 4.55691C20.8303 5.05664 21.2238 5.66138 21.4746 6.32891C21.7216 6.96591 21.8896 7.69191 21.9396 8.75691C21.9516 9.02291 21.9616 9.24391 21.9696 9.46891L21.9756 9.66291C21.9906 10.1549 21.9966 10.7259 21.9986 11.8509L21.9996 12.5969V13.9069C22.002 14.6363 21.9944 15.3657 21.9766 16.0949L21.9706 16.2889C21.9626 16.5139 21.9526 16.7349 21.9406 17.0009C21.8906 18.0659 21.7206 18.7909 21.4746 19.4289C21.2238 20.0964 20.8303 20.7012 20.3216 21.2009C19.8219 21.7096 19.2171 22.1031 18.5496 22.3539C17.9126 22.6009 17.1866 22.7689 16.1226 22.8189L15.4106 22.8489L15.2166 22.8549C14.7236 22.8689 14.1526 22.8759 13.0276 22.8779L12.2816 22.8789H10.9726C10.2429 22.8815 9.51312 22.8738 8.78359 22.8559L8.58959 22.8499C8.3522 22.8409 8.11487 22.8306 7.87759 22.8189C6.81359 22.7689 6.08759 22.6009 5.44959 22.3539C4.78242 22.103 4.17804 21.7095 3.67859 21.2009C3.16954 20.7013 2.7757 20.0965 2.52459 19.4289C2.27759 18.7919 2.10959 18.0659 2.05959 17.0009L2.02959 16.2889L2.02459 16.0949C2.00616 15.3657 1.99782 14.6363 1.99959 13.9069V11.8509C1.99682 11.1215 2.00416 10.3921 2.02159 9.66291L2.02859 9.46891C2.03659 9.24391 2.04659 9.02291 2.05859 8.75691C2.10859 7.69191 2.27659 6.96691 2.52359 6.32891C2.77529 5.6611 3.16982 5.05634 3.67959 4.55691C4.17875 4.04846 4.78278 3.65498 5.44959 3.40391C6.08759 3.15691 6.81259 2.98891 7.87759 2.93891C8.14359 2.92691 8.36559 2.91691 8.58959 2.90891L8.78359 2.90291C9.51278 2.88514 10.2422 2.87747 10.9716 2.87991L13.0276 2.87891ZM11.9996 7.87891C10.6735 7.87891 9.40174 8.40569 8.46406 9.34337C7.52638 10.2811 6.99959 11.5528 6.99959 12.8789C6.99959 14.205 7.52638 15.4768 8.46406 16.4144C9.40174 17.3521 10.6735 17.8789 11.9996 17.8789C13.3257 17.8789 14.5974 17.3521 15.5351 16.4144C16.4728 15.4768 16.9996 14.205 16.9996 12.8789C16.9996 11.5528 16.4728 10.2811 15.5351 9.34337C14.5974 8.40569 13.3257 7.87891 11.9996 7.87891ZM11.9996 9.87891C12.3936 9.87884 12.7837 9.95637 13.1477 10.1071C13.5117 10.2578 13.8424 10.4787 14.1211 10.7572C14.3997 11.0358 14.6207 11.3664 14.7715 11.7304C14.9224 12.0943 15 12.4844 15.0001 12.8784C15.0002 13.2724 14.9226 13.6625 14.7719 14.0265C14.6212 14.3905 14.4003 14.7213 14.1218 14.9999C13.8432 15.2785 13.5126 15.4995 13.1486 15.6504C12.7847 15.8012 12.3946 15.8788 12.0006 15.8789C11.2049 15.8789 10.4419 15.5628 9.87927 15.0002C9.31666 14.4376 9.00059 13.6746 9.00059 12.8789C9.00059 12.0833 9.31666 11.3202 9.87927 10.7576C10.4419 10.195 11.2049 9.87891 12.0006 9.87891M17.2506 6.37891C16.9191 6.37891 16.6011 6.5106 16.3667 6.74502C16.1323 6.97944 16.0006 7.29739 16.0006 7.62891C16.0006 7.96043 16.1323 8.27837 16.3667 8.51279C16.6011 8.74721 16.9191 8.87891 17.2506 8.87891C17.5821 8.87891 17.9001 8.74721 18.1345 8.51279C18.3689 8.27837 18.5006 7.96043 18.5006 7.62891C18.5006 7.29739 18.3689 6.97944 18.1345 6.74502C17.9001 6.5106 17.5821 6.37891 17.2506 6.37891Z" fill="#999999"/>
</svg>
