<svg width="24" height="25" viewBox="0 0 24 25" fill="none" xmlns="http://www.w3.org/2000/svg">
<path d="M17.303 3.12891H6.697C5.51758 3.12891 4.38647 3.59743 3.5525 4.4314C2.71852 5.26538 2.25 6.39649 2.25 7.57591V18.1819C2.25 19.3613 2.71852 20.4924 3.5525 21.3264C4.38647 22.1604 5.51758 22.6289 6.697 22.6289H17.303C18.4824 22.6289 19.6135 22.1604 20.4475 21.3264C21.2815 20.4924 21.75 19.3613 21.75 18.1819V7.57591C21.75 6.39649 21.2815 5.26538 20.4475 4.4314C19.6135 3.59743 18.4824 3.12891 17.303 3.12891ZM8.843 18.8709C8.84614 18.9253 8.83811 18.9798 8.81942 19.0311C8.80072 19.0823 8.77176 19.1291 8.7343 19.1687C8.69684 19.2084 8.65167 19.2399 8.60158 19.2614C8.55149 19.2829 8.49752 19.294 8.443 19.2939H6.663C6.55566 19.2913 6.45362 19.2467 6.37883 19.1696C6.30403 19.0926 6.26244 18.9893 6.263 18.8819V11.4789C6.26153 11.4255 6.27079 11.3723 6.29023 11.3225C6.30967 11.2726 6.3389 11.2272 6.3762 11.1889C6.41349 11.1506 6.45808 11.1202 6.50734 11.0994C6.5566 11.0786 6.60953 11.0679 6.663 11.0679H8.443C8.49647 11.0679 8.5494 11.0786 8.59866 11.0994C8.64792 11.1202 8.69251 11.1506 8.7298 11.1889C8.7671 11.2272 8.79633 11.2726 8.81577 11.3225C8.83521 11.3723 8.84447 11.4255 8.843 11.4789V18.8709ZM7.52 9.51091C7.32729 9.50946 7.13674 9.47007 6.95925 9.39499C6.78176 9.31991 6.62079 9.2106 6.48554 9.07331C6.35029 8.93602 6.24341 8.77343 6.171 8.59483C6.09858 8.41623 6.06206 8.22512 6.0635 8.03241C6.06494 7.83969 6.10433 7.64915 6.17942 7.47166C6.2545 7.29416 6.36381 7.1332 6.5011 6.99795C6.63839 6.8627 6.80098 6.75582 6.97957 6.6834C7.15817 6.61099 7.34929 6.57446 7.542 6.57591C7.92452 6.58835 8.28703 6.74978 8.55219 7.02576C8.81734 7.30175 8.96415 7.67043 8.96128 8.05313C8.9584 8.43584 8.80609 8.80228 8.53682 9.07425C8.26755 9.34623 7.90266 9.50221 7.52 9.50891M18.337 18.8589C18.3365 18.9599 18.2969 19.0569 18.2264 19.1292C18.1558 19.2016 18.06 19.2438 17.959 19.2469H16.08C15.9788 19.2438 15.8828 19.2015 15.8123 19.1289C15.7418 19.0563 15.7022 18.9591 15.702 18.8579V15.4339C15.702 14.9229 15.858 13.2109 14.346 13.2109C13.167 13.2109 12.934 14.4109 12.889 14.9449V18.9359C12.889 19.0373 12.8496 19.1347 12.779 19.2075C12.7085 19.2803 12.6123 19.3228 12.511 19.3259H10.688C10.5847 19.3256 10.4858 19.2844 10.4129 19.2113C10.34 19.1382 10.299 19.0392 10.299 18.9359V11.4429C10.3021 11.3416 10.3446 11.2454 10.4174 11.1749C10.4902 11.1043 10.5876 11.0649 10.689 11.0649H12.511C12.6124 11.0649 12.7098 11.1043 12.7826 11.1749C12.8554 11.2454 12.8979 11.3416 12.901 11.4429V12.0879C13.167 11.6985 13.5343 11.3892 13.9633 11.1932C14.3922 10.9972 14.8665 10.9221 15.335 10.9759C18.37 10.9759 18.359 13.8109 18.359 15.4229L18.337 18.8589Z" fill="#999999"/>
</svg>
