<svg width="121" height="46" viewBox="0 0 121 46" fill="none" xmlns="http://www.w3.org/2000/svg">
<path d="M0.362305 39.5147C1.55876 36.8549 6.85375 26.9716 19.9574 25.5154C22.8308 25.1963 25.504 25.0476 28.3706 25.0476C31.1173 25.0476 33.6776 25.1851 36.388 25.3309C39.4112 25.4938 42.5377 25.6615 46.2762 25.6615C51.9726 25.6615 57.849 25.2656 64.6569 24.4199C60.9572 25.2992 50.756 27.4051 37.9203 27.4051C35.3582 27.4051 32.7912 27.3209 30.2917 27.155C29.4523 27.0991 28.6021 27.0708 27.7653 27.0708C14.7604 27.0711 5.00688 33.6465 0.362305 39.5147Z" fill="white"/>
<path d="M62.8644 24.7283C58.234 25.7209 49.072 27.3117 37.9214 27.3117C35.3608 27.3117 32.7957 27.2275 30.298 27.0616C29.4568 27.0057 28.6047 26.9774 27.7657 26.9774C15.1522 26.9774 5.58795 33.1494 0.76074 38.8797C1.38208 37.6199 2.53195 35.6143 4.36652 33.5438C7.14707 30.4054 12.1107 26.4813 19.9682 25.6084C22.8382 25.2893 25.5084 25.141 28.3714 25.141C31.1154 25.141 33.6742 25.2785 36.3836 25.4242C39.4079 25.5867 42.5354 25.7548 46.2765 25.7548C51.4668 25.7548 56.8069 25.4261 62.8644 24.7283ZM66.181 24.1309C57.6977 25.2457 51.4329 25.5685 46.2754 25.5685C39.1667 25.5685 34.1647 24.9546 28.3706 24.9546C25.8029 24.9546 23.0786 25.0754 19.947 25.4231C4.62183 27.1257 0 40.1403 0 40.1403C4.90809 33.5203 15.1227 27.1638 27.7657 27.1638C28.5954 27.1638 29.4359 27.1913 30.2857 27.2476C32.9149 27.4224 35.4666 27.4981 37.9218 27.4981C54.2615 27.4981 66.181 24.1309 66.181 24.1309Z" fill="white"/>
<path d="M32.1099 23.7202C32.1099 23.7202 53.2518 12.5156 67.1997 13.8682C87.2685 15.8142 98.0326 21.6523 114.939 21.8957C114.939 21.8957 105.817 23.2337 87.5723 20.3145C63.5656 16.4732 60.451 13.4861 32.1099 23.7202Z" fill="white" stroke="white" stroke-width="0.75" stroke-miterlimit="10" stroke-linecap="round" stroke-linejoin="round"/>
<path d="M43.4505 28.6458C43.4505 28.6458 54.7326 28.2354 68.2802 24.6106C81.9534 20.9523 84.6836 20.4666 92.5169 22.1931C92.5169 22.1931 85.0571 22.0146 72.8402 25.4989C60.6232 28.9831 53.6987 29.8013 43.4505 28.6458Z" fill="white" stroke="white" stroke-width="0.75" stroke-miterlimit="10" stroke-linecap="round" stroke-linejoin="round"/>
<path d="M113.647 39.5909C114.682 38.3531 116.69 35.4257 115.558 32.4334C113.712 27.554 104.752 24.6955 88.9216 23.9318C90.5996 23.7701 93.8565 23.5166 97.7698 23.5166C104.656 23.5166 114.207 24.3045 120.667 28.0508C120.431 28.8425 118.152 36.1722 113.647 39.5909Z" fill="white"/>
<path d="M97.7705 23.4238V23.6102C104.622 23.6102 114.116 24.3911 120.557 28.0949C120.4 28.6148 119.789 30.5336 118.714 32.732C117.759 34.6825 116.267 37.1891 114.255 38.9703C114.488 38.6483 114.733 38.2752 114.965 37.8604C116.035 35.9408 116.27 34.0526 115.645 32.4003C113.837 27.6219 105.3 24.7686 90.2529 23.9087C92.067 23.7641 94.7186 23.6098 97.7701 23.6098L97.7705 23.4238ZM97.7698 23.4238C91.9835 23.4238 87.6863 23.9706 87.6863 23.9706C128.189 25.6125 113.023 40.1396 113.023 40.1396C118.314 36.7645 120.777 28.0073 120.777 28.0073C114.37 24.261 104.93 23.4238 97.7698 23.4238Z" fill="white"/>
<path d="M12.0108 36.7649C12.0108 36.7649 12.5278 34.0753 15.0821 31.8169C15.0821 31.8169 7.17616 34.606 1.18604 40.2842C1.18604 40.2842 7.17579 36.7041 12.0108 36.7649Z" fill="white" stroke="white" stroke-width="0.75" stroke-miterlimit="10" stroke-linecap="round" stroke-linejoin="round"/>
<path d="M37.9811 17.9911C38.2226 17.4786 38.4802 16.9687 38.7515 16.4659L38.9233 16.6213C38.602 17.0593 38.2875 17.5174 37.9811 17.9911ZM40.024 14.3145C40.7109 13.2504 41.4683 12.216 42.2779 11.2376L42.9332 12.1903C42.1187 12.9127 41.3077 13.7375 40.4582 14.7088L40.024 14.3145ZM83.3038 13.9056C82.4566 13.7267 78.5485 12.9224 74.627 12.4878L80.0834 8.15888C81.3045 9.73627 82.552 11.9633 83.3038 13.9056ZM43.9585 9.36056C44.9205 8.36872 45.9526 7.43466 47.0283 6.58335L47.8774 8.74667C46.7585 9.35347 45.7655 9.97817 44.8471 10.6528L43.9585 9.36056ZM72.5375 10.5973C71.4846 9.69713 70.3358 8.9047 69.1203 8.24013L72.5029 2.22504C74.4485 3.09126 76.2227 4.24933 77.7796 5.66793L72.5375 10.5973ZM49.075 5.09654C50.4832 4.16024 51.9647 3.34881 53.4814 2.68237L53.8604 6.39661C53.0554 6.59304 52.2659 6.82786 51.5123 7.09473C51.0877 7.24457 50.6718 7.42498 50.2696 7.59904L50.0881 7.67731L49.075 5.09654ZM66.4415 7.04293C65.1936 6.58074 63.9066 6.24007 62.6132 6.0291L63.6051 0.428855C63.6841 0.428109 63.7631 0.427734 63.8421 0.427734C65.8459 0.427734 67.8013 0.68827 69.6556 1.20189L66.4415 7.04293ZM55.871 1.75912C56.6194 1.50902 57.3142 1.30663 57.9925 1.14114C58.9463 0.908182 59.9113 0.73337 60.9378 0.607388L60.0369 5.77751C59.7101 5.76484 59.3821 5.75776 59.0526 5.75776C58.0861 5.75776 57.1826 5.81516 56.2947 5.93331L55.871 1.75912Z" fill="white"/>
<path d="M63.8421 0.521325C65.7975 0.521325 67.7051 0.769939 69.5169 1.26082L66.3987 6.92817C65.1989 6.48909 63.9636 6.16146 62.7213 5.95348L63.6833 0.522076C63.7363 0.521331 63.7892 0.521325 63.8421 0.521325ZM60.8249 0.715891L59.9594 5.68176C59.6523 5.67058 59.3481 5.66498 59.0529 5.66498C58.1174 5.66498 57.2404 5.71866 56.3782 5.82862L55.9712 1.82402C56.6924 1.5851 57.3622 1.3909 58.0145 1.23175C58.9277 1.00886 59.8495 0.839264 60.8249 0.715891ZM72.5424 2.34509C74.4168 3.18895 76.131 4.30639 77.6421 5.66946L72.5345 10.4721C71.5181 9.61069 70.4137 8.84846 69.2474 8.20364L72.5424 2.34509ZM53.402 2.81957L53.7598 6.32546C52.979 6.51854 52.213 6.74776 51.4813 7.00644C51.0519 7.15851 50.6334 7.33966 50.2282 7.51521L50.1399 7.55323L49.1898 5.13235C50.5376 4.24153 51.9528 3.46439 53.402 2.81957ZM46.9877 6.73472L47.7607 8.70384C46.6985 9.28381 45.7495 9.88018 44.8695 10.5209L44.0786 9.37103C44.9929 8.43213 45.9702 7.5469 46.9877 6.73472ZM80.0674 8.29086C81.2314 9.81271 82.4122 11.9138 83.1543 13.7793C82.063 13.5516 78.4934 12.8359 74.8619 12.4207L80.0674 8.29086ZM42.2716 11.3923L42.8102 12.1754C42.0338 12.8687 41.2592 13.6567 40.4512 14.5758L40.1455 14.2989C40.7963 13.2955 41.5105 12.3193 42.2716 11.3923ZM38.7772 16.615L38.7985 16.6344C38.759 16.6884 38.7195 16.7432 38.6803 16.798C38.7124 16.7369 38.7448 16.6758 38.7772 16.615ZM63.8421 0.334961C63.737 0.334961 63.6323 0.335711 63.5268 0.337202L62.5048 6.10667C63.8787 6.3236 65.2074 6.67993 66.4844 7.15851L69.7939 1.14416C67.9138 0.611528 65.9171 0.334961 63.8421 0.334961ZM61.0515 0.500453C60.0366 0.620099 59.0093 0.79715 57.9705 1.05061C57.2258 1.2325 56.4938 1.45166 55.7707 1.69468L56.212 6.03883C57.1692 5.90689 58.1163 5.85172 59.0529 5.85172C59.4085 5.85172 59.7626 5.85955 60.1152 5.87446L61.0515 0.500453ZM72.463 2.1058L68.9925 8.27707C70.2568 8.96028 71.4454 9.77842 72.5401 10.7225L77.916 5.6676C76.3136 4.19159 74.4768 2.99215 72.463 2.1058ZM53.5615 2.54599C51.9547 3.24337 50.4164 4.08834 48.9613 5.06079L50.0366 7.8011C50.535 7.58715 51.0288 7.36463 51.5436 7.18236C52.3505 6.89648 53.1575 6.66166 53.9618 6.46821L53.5615 2.54599ZM47.069 6.43244C45.9269 7.32885 44.8475 8.30503 43.8385 9.3509L44.8248 10.7848C45.8267 10.0423 46.89 9.38445 47.9941 8.78882L47.069 6.43244ZM80.0991 8.02771L74.3915 12.556C78.922 13.0413 83.4521 14.0327 83.4521 14.0327C82.6828 11.9872 81.3768 9.65766 80.0991 8.02771ZM42.285 11.0833C41.424 12.1158 40.6278 13.2008 39.9029 14.3306L40.4661 14.8412C41.2753 13.9112 42.1299 13.0208 43.0565 12.2053L42.285 11.0833ZM38.7262 16.3172C38.2088 17.2684 37.7396 18.2435 37.3247 19.2398C37.8521 18.3337 38.4246 17.4533 39.0482 16.609L38.7262 16.3172Z" fill="white"/>
<path d="M25.3325 43.329H20.3987L19.1054 45.5832H14.5044L22.7458 32.6484H27.0326L30.0997 45.5832H25.7575L25.3325 43.329ZM24.7228 40.1873L24.0943 36.8797L22.1912 40.1873H24.7228Z" fill="white"/>
<path d="M31.7062 41.1298C31.7062 40.6866 31.7617 40.243 31.8538 39.7626L33.2765 32.6483H37.6374L36.233 39.6888C36.1592 40.0395 36.1223 40.3537 36.1223 40.6311C36.1223 41.7951 36.7507 42.3493 37.8592 42.3493C39.1157 42.3493 39.7996 41.6285 40.1876 39.6884L41.5921 32.6479H45.8792L44.4192 39.9467C43.6428 43.8272 41.2965 45.8783 37.3236 45.8783C33.8128 45.8787 31.7062 44.0311 31.7062 41.1298Z" fill="white"/>
<path d="M49.9986 36.0298H46.2106L46.8942 32.6484H58.8312L58.1476 36.0298H54.3595L52.4564 45.5832H48.0955L49.9986 36.0298Z" fill="white"/>
<path d="M58.0905 40.0954C58.0905 35.5313 61.4905 32.353 66.2395 32.353C70.2679 32.353 72.7995 34.737 72.7995 38.1367C72.7995 42.7011 69.3995 45.879 64.6505 45.879C60.6221 45.8786 58.0905 43.495 58.0905 40.0954ZM68.4013 38.395C68.4013 36.8981 67.4591 35.882 65.8697 35.882C63.7265 35.882 62.4883 37.7114 62.4883 39.8363C62.4883 41.3332 63.4306 42.3492 65.0199 42.3492C67.1635 42.3496 68.4013 40.5203 68.4013 38.395Z" fill="white"/>
<path d="M26.8853 32.8343L29.8642 45.3964H25.9121L25.5159 43.2938L25.4872 43.1421H25.3325H20.3987H20.2906L20.237 43.2357L18.9973 45.3964H14.8439L22.8479 32.8343H26.8853ZM21.8691 40.3735H22.1916H24.7231H24.9483L24.9061 40.1525L24.2777 36.8449L24.1838 36.351L23.9329 36.7867L22.0298 40.0943L21.8691 40.3735ZM27.0326 32.6479H22.7458L14.5044 45.5828H19.1054L20.3987 43.3285H25.3325L25.7575 45.5828H30.0997L27.0326 32.6479ZM22.1916 40.1871L24.0947 36.8795L24.7231 40.1871H22.1916Z" fill="white"/>
<path d="M45.6518 32.8343L44.2366 39.9102C43.4691 43.7467 41.1433 45.692 37.3236 45.692C33.9735 45.692 31.8925 43.9435 31.8925 41.1294C31.8925 40.7336 31.9384 40.3105 32.0368 39.7988L33.4297 32.8343H37.4108L36.0511 39.65C35.975 40.012 35.9363 40.3418 35.9363 40.6307C35.9363 41.8588 36.6195 42.5353 37.8596 42.5353C39.2439 42.5353 39.9714 41.7209 40.3706 39.7246L41.7449 32.8343H45.6518ZM45.8792 32.6479H41.5921L40.1876 39.6884C39.7996 41.6285 39.116 42.3493 37.8592 42.3493C36.7503 42.3493 36.1223 41.7951 36.1223 40.6311C36.1223 40.3537 36.1592 40.0395 36.233 39.6888L37.6374 32.6483H33.2765L31.8538 39.7626C31.7613 40.2431 31.7062 40.6866 31.7062 41.1298C31.7062 44.0311 33.8128 45.8787 37.3236 45.8787C41.2965 45.8787 43.6432 43.8276 44.4192 39.9471L45.8792 32.6479Z" fill="white"/>
<path d="M58.603 32.8343L57.9947 35.843H54.3591H54.2063L54.1765 35.9928L52.3031 45.3964H48.3224L50.1812 36.0659L50.2256 35.843H49.9986H46.4383L47.0465 32.8343H58.603ZM58.8307 32.6479H46.8937L46.2101 36.0294H49.9982L48.095 45.5828H52.456L54.3591 36.0294H58.1472L58.8307 32.6479Z" fill="white"/>
<path d="M66.2395 32.5389C70.0518 32.5389 72.6131 34.7883 72.6131 38.1362C72.6131 42.5851 69.3387 45.6921 64.6505 45.6921C60.8383 45.6921 58.2772 43.4427 58.2772 40.0949C58.2769 35.6463 61.5513 32.5389 66.2395 32.5389ZM65.0199 42.5359C67.1206 42.5359 68.5877 40.8332 68.5877 38.3952C68.5877 36.7556 67.5209 35.6959 65.8697 35.6959C63.769 35.6959 62.302 37.3985 62.302 39.8366C62.302 41.4762 63.3687 42.5359 65.0199 42.5359ZM66.2395 32.3525C61.4905 32.3525 58.0905 35.5308 58.0905 40.0949C58.0905 43.4945 60.6221 45.8785 64.6502 45.8785C69.3991 45.8785 72.7991 42.7006 72.7991 38.1362C72.7991 34.7365 70.2676 32.3525 66.2395 32.3525ZM65.0199 42.3495C63.4306 42.3495 62.4883 41.3331 62.4883 39.8366C62.4883 37.7116 63.7265 35.8823 65.8697 35.8823C67.4591 35.8823 68.4013 36.8987 68.4013 38.3952C68.4013 40.5201 67.1635 42.3495 65.0199 42.3495Z" fill="white"/>
<path d="M79.2701 35.0512L78.5865 38.4695H84.5919L84.0932 40.8717H78.1247L77.1824 45.5837H74.1704L76.7575 32.6489H86.5327L86.0336 35.0512H79.2701Z" fill="white"/>
<path d="M88.563 32.6479H91.575L88.9883 45.5828H85.9763L88.563 32.6479Z" fill="white"/>
<path d="M100.056 39.06L103.604 45.5828H100.37L98.0788 41.1849L94.1614 45.5828H90.5765L96.7668 38.8751L93.4223 32.6479H96.6192L98.781 36.8054L102.551 32.6479H105.951L100.056 39.06Z" fill="white"/>
<path d="M86.3027 32.8343L85.8812 34.8638H79.2697H79.1169L79.0871 35.0137L78.4035 38.432L78.3588 38.6548H78.5861H84.3627L83.9411 40.6844H78.1243H77.9715L77.9417 40.8342L77.0293 45.3964H74.3974L76.91 32.8343H86.3027ZM86.532 32.6479H76.7568L74.1697 45.5828H77.1817L78.124 40.8707H84.0925L84.5912 38.4685H78.5858L79.2694 35.0502H86.0325L86.532 32.6479Z" fill="white"/>
<path d="M91.3477 32.8343L88.8355 45.3964H86.2036L88.7158 32.8343H91.3477ZM91.575 32.6479H88.563L85.9759 45.5828H88.9879L91.575 32.6479Z" fill="white"/>
<path d="M105.526 32.8343L99.9186 38.934L99.8284 39.0321L99.8921 39.1491L103.29 45.3964H100.483L98.2443 41.0988L98.1194 40.8592L97.9397 41.0608L94.0779 45.396H91.0021L96.9039 39.0011L96.9941 38.9035L96.9311 38.7864L93.7339 32.8339H96.5059L98.6155 36.8911L98.7389 37.1285L98.9189 36.9302L102.633 32.8339L105.526 32.8343ZM105.95 32.6479H102.55L98.7806 36.8054L96.6188 32.6479H93.4219L96.7664 38.8751L90.5761 45.5828H94.161L98.0784 41.1849L100.37 45.5828H103.603L100.055 39.06L105.95 32.6479Z" fill="white"/>
</svg>
