<svg width="42" height="43" viewBox="0 0 42 43" fill="none" xmlns="http://www.w3.org/2000/svg">
<g filter="url(#filter0_b_56_2734)">
<rect y="0.870117" width="42" height="42" rx="2" fill="#999999" fill-opacity="0.2"/>
<path d="M21 22.3701C20.0717 22.3701 19.1815 22.7389 18.5251 23.3952C17.8687 24.0516 17.5 24.9419 17.5 25.8701C17.5 26.7984 17.8687 27.6886 18.5251 28.345C19.1815 29.0014 20.0717 29.3701 21 29.3701C21.9283 29.3701 22.8185 29.0014 23.4749 28.345C24.1313 27.6886 24.5 26.7984 24.5 25.8701C24.5 24.9419 24.1313 24.0516 23.4749 23.3952C22.8185 22.7389 21.9283 22.3701 21 22.3701ZM19.5 25.8701C19.5 25.4723 19.658 25.0908 19.9393 24.8095C20.2206 24.5282 20.6022 24.3701 21 24.3701C21.3978 24.3701 21.7794 24.5282 22.0607 24.8095C22.342 25.0908 22.5 25.4723 22.5 25.8701C22.5 26.2679 22.342 26.6495 22.0607 26.9308C21.7794 27.2121 21.3978 27.3701 21 27.3701C20.6022 27.3701 20.2206 27.2121 19.9393 26.9308C19.658 26.6495 19.5 26.2679 19.5 25.8701Z" fill="#999999"/>
<path d="M26.526 14.9861L23.347 10.5291L11.658 19.8671L11.01 19.8601V19.8701H10.5V31.8701H31.5V19.8701H30.538L28.624 14.2711L26.526 14.9861ZM28.425 19.8701H18.397L25.866 17.3241L27.388 16.8371L28.425 19.8701ZM24.55 15.6601L16.84 18.2881L22.946 13.4101L24.55 15.6601ZM12.5 28.0391V23.6991C12.9222 23.5501 13.3057 23.3085 13.6223 22.992C13.939 22.6755 14.1808 22.2921 14.33 21.8701H27.67C27.8191 22.2923 28.0609 22.6759 28.3775 22.9925C28.6942 23.3092 29.0777 23.5509 29.5 23.7001V28.0401C29.0777 28.1892 28.6942 28.4309 28.3775 28.7476C28.0609 29.0642 27.8191 29.4478 27.67 29.8701H14.332C14.1822 29.4477 13.94 29.0642 13.623 28.7474C13.3061 28.4306 12.9224 28.1886 12.5 28.0391Z" fill="#999999"/>
</g>
<defs>
<filter id="filter0_b_56_2734" x="-4" y="-3.12988" width="50" height="50" filterUnits="userSpaceOnUse" color-interpolation-filters="sRGB">
<feFlood flood-opacity="0" result="BackgroundImageFix"/>
<feGaussianBlur in="BackgroundImageFix" stdDeviation="2"/>
<feComposite in2="SourceAlpha" operator="in" result="effect1_backgroundBlur_56_2734"/>
<feBlend mode="normal" in="SourceGraphic" in2="effect1_backgroundBlur_56_2734" result="shape"/>
</filter>
</defs>
</svg>
