<svg width="35" height="36" viewBox="0 0 35 36" fill="none" xmlns="http://www.w3.org/2000/svg">
<rect y="0.244385" width="35" height="35" rx="17.5" fill="#F9C51C"/>
<path d="M24.7909 17.7445L25.7109 16.1545C25.8214 15.9632 25.8515 15.7358 25.7945 15.5223C25.7374 15.3088 25.5979 15.1268 25.4067 15.0161L23.815 14.0961V12.2628C23.815 12.0418 23.7272 11.8298 23.5709 11.6735C23.4147 11.5173 23.2027 11.4295 22.9817 11.4295H21.1492L20.23 9.83862C20.1196 9.64723 19.9376 9.50754 19.7242 9.45029C19.6185 9.42195 19.5082 9.41473 19.3997 9.42903C19.2911 9.44333 19.1865 9.47887 19.0917 9.53362L17.5 10.4536L15.9084 9.53279C15.717 9.42228 15.4895 9.39234 15.276 9.44954C15.0625 9.50674 14.8805 9.64639 14.77 9.83779L13.85 11.4295H12.0175C11.7965 11.4295 11.5846 11.5173 11.4283 11.6735C11.272 11.8298 11.1842 12.0418 11.1842 12.2628V14.0953L9.59253 15.0153C9.49772 15.0701 9.41463 15.143 9.34803 15.2299C9.28142 15.3168 9.2326 15.416 9.20435 15.5218C9.17611 15.6276 9.16898 15.738 9.1834 15.8465C9.19781 15.9551 9.23348 16.0597 9.28836 16.1545L10.2084 17.7445L9.28836 19.3345C9.17835 19.5259 9.1485 19.7531 9.20532 19.9665C9.26215 20.1799 9.40103 20.3622 9.59169 20.4736L11.1834 21.3936V23.2261C11.1834 23.4471 11.2712 23.6591 11.4274 23.8154C11.5837 23.9717 11.7957 24.0595 12.0167 24.0595H13.85L14.77 25.6511C14.8438 25.7772 14.9491 25.882 15.0757 25.955C15.2022 26.0281 15.3456 26.0669 15.4917 26.0678C15.6367 26.0678 15.7809 26.0295 15.9092 25.9553L17.4992 25.0353L19.0909 25.9553C19.2822 26.0659 19.5095 26.0959 19.723 26.0389C19.9365 25.9819 20.1185 25.8424 20.2292 25.6511L21.1484 24.0595H22.9809C23.2019 24.0595 23.4138 23.9717 23.5701 23.8154C23.7264 23.6591 23.8142 23.4471 23.8142 23.2261V21.3936L25.4059 20.4736C25.5007 20.4188 25.5837 20.3459 25.6504 20.259C25.717 20.1721 25.7658 20.0729 25.794 19.9671C25.8223 19.8613 25.8294 19.751 25.815 19.6424C25.8006 19.5339 25.7649 19.4292 25.71 19.3345L24.7909 17.7445ZM15.4159 13.5695C15.7475 13.5696 16.0655 13.7014 16.2999 13.936C16.5343 14.1706 16.666 14.4887 16.6659 14.8203C16.6657 15.1519 16.5339 15.4699 16.2993 15.7043C16.0647 15.9388 15.7467 16.0704 15.415 16.0703C15.0834 16.0702 14.7654 15.9383 14.531 15.7038C14.2965 15.4692 14.1649 15.1511 14.165 14.8195C14.1651 14.4878 14.297 14.1698 14.5316 13.9354C14.7661 13.701 15.0842 13.5693 15.4159 13.5695ZM15.6659 21.5695L14.3325 20.5703L19.3325 13.9036L20.6659 14.9028L15.6659 21.5695ZM19.5825 21.9028C19.4183 21.9027 19.2557 21.8703 19.104 21.8074C18.9524 21.7446 18.8145 21.6524 18.6985 21.5363C18.5824 21.4201 18.4903 21.2822 18.4275 21.1305C18.3648 20.9788 18.3325 20.8162 18.3325 20.652C18.3326 20.4877 18.365 20.3252 18.4279 20.1735C18.4908 20.0218 18.5829 19.884 18.6991 19.7679C18.8152 19.6518 18.9531 19.5598 19.1048 19.497C19.2565 19.4342 19.4192 19.4019 19.5834 19.402C19.915 19.4021 20.233 19.5339 20.4674 19.7685C20.7018 20.0031 20.8335 20.3212 20.8334 20.6528C20.8332 20.9844 20.7014 21.3024 20.4668 21.5368C20.2322 21.7713 19.9142 21.9029 19.5825 21.9028Z" fill="black"/>
</svg>
