<svg width="40" height="41" viewBox="0 0 40 41" fill="none" xmlns="http://www.w3.org/2000/svg">
<path d="M16.55 22.485C16.7167 22.485 20.5833 22.6516 22.8833 22.085H22.9C25.55 21.435 29.2333 19.5683 30.1833 13.4683C30.1833 13.4683 32.3 5.83496 21.8 5.83496H12.7833C11.9667 5.83496 11.2667 6.43496 11.1333 7.23496L7.3 31.5016C7.21667 32.0016 7.61667 32.4683 8.11667 32.4683H13.8333L15.2333 23.6016C15.3333 22.9683 15.8833 22.485 16.55 22.485Z" fill="#999999"/>
<path d="M31.6502 14.6514C30.3002 20.868 26.0502 24.1514 19.2836 24.1514H16.8336L15.1169 35.018C15.0502 35.4514 15.3836 35.8347 15.8169 35.8347H18.9836C19.5502 35.8347 20.0502 35.418 20.1336 34.8514C20.2669 34.1847 21.0002 29.318 21.1502 28.4847C21.2336 27.918 21.7336 27.5014 22.3002 27.5014H23.0336C27.7336 27.5014 31.4169 25.5847 32.5002 20.068C32.9336 17.8347 32.7002 16.0014 31.6502 14.6514Z" fill="#999999"/>
</svg>
