<svg width="20" height="21" viewBox="0 0 20 21" fill="none" xmlns="http://www.w3.org/2000/svg">
<path d="M4.45835 4.66978C3.70835 4.13644 3.52502 3.10311 4.05002 2.34478C4.58335 1.59478 5.61669 1.41144 6.37502 1.93644C7.12502 2.46978 7.30835 3.50311 6.78335 4.26144C6.25002 5.01144 5.21669 5.19478 4.45835 4.66978ZM13.3334 15.8031H7.44169C6.20835 15.8031 5.15835 14.9031 4.97502 13.6864L3.33335 5.80311H1.66669L3.33335 13.9364C3.48298 14.9206 3.98072 15.8185 4.73614 16.4669C5.49156 17.1153 6.45451 17.4711 7.45002 17.4698H13.3334M13.525 12.4698H9.45835L8.60002 9.05311C9.91669 9.79478 11.3334 10.3364 12.8917 10.0698V8.30311C11.5334 8.55311 10.025 8.06978 8.98335 7.25311L7.61669 6.19478C7.42502 6.04478 7.20835 5.94478 6.98335 5.87811C6.71574 5.79887 6.43357 5.78176 6.15835 5.82811H6.14169C5.65117 5.91564 5.215 6.19316 4.9279 6.6004C4.64081 7.00764 4.52598 7.5117 4.60835 8.00311L5.73335 12.9364C5.84057 13.5094 6.14527 14.0266 6.59443 14.3981C7.0436 14.7696 7.60879 14.9719 8.19169 14.9698H13.9L17.0834 17.4698L18.3334 16.2198" fill="#999999"/>
</svg>
