<svg width="24" height="25" viewBox="0 0 24 25" fill="none" xmlns="http://www.w3.org/2000/svg">
<path d="M22.46 6.87891C21.69 7.22891 20.86 7.45891 20 7.56891C20.88 7.03891 21.56 6.19891 21.88 5.18891C21.05 5.68891 20.13 6.03891 19.16 6.23891C18.37 5.37891 17.26 4.87891 16 4.87891C13.65 4.87891 11.73 6.79891 11.73 9.16891C11.73 9.50891 11.77 9.83891 11.84 10.1489C8.27998 9.96891 5.10998 8.25891 2.99998 5.66891C2.62998 6.29891 2.41998 7.03891 2.41998 7.81891C2.41998 9.30891 3.16998 10.6289 4.32998 11.3789C3.61998 11.3789 2.95998 11.1789 2.37998 10.8789V10.9089C2.37998 12.9889 3.85998 14.7289 5.81998 15.1189C5.19082 15.2918 4.53001 15.3158 3.88998 15.1889C4.16158 16.0414 4.69351 16.7873 5.41099 17.3218C6.12847 17.8564 6.99543 18.1526 7.88998 18.1689C6.37365 19.3694 4.49399 20.0183 2.55998 20.0089C2.21998 20.0089 1.87998 19.9889 1.53998 19.9489C3.43998 21.1689 5.69998 21.8789 8.11998 21.8789C16 21.8789 20.33 15.3389 20.33 9.66891C20.33 9.47891 20.33 9.29891 20.32 9.10891C21.16 8.50891 21.88 7.74891 22.46 6.87891Z" fill="#999999"/>
</svg>
