<svg width="42" height="43" viewBox="0 0 42 43" fill="none" xmlns="http://www.w3.org/2000/svg">
<g filter="url(#filter0_b_56_2738)">
<rect y="0.870117" width="42" height="42" rx="2" fill="#999999" fill-opacity="0.2"/>
<path d="M15.5 14.8701C14.84 14.8701 14.28 15.2901 14.08 15.8701L12 21.8701V29.8701C12 30.1353 12.1054 30.3897 12.2929 30.5772C12.4804 30.7648 12.7348 30.8701 13 30.8701H14C14.2652 30.8701 14.5196 30.7648 14.7071 30.5772C14.8946 30.3897 15 30.1353 15 29.8701V28.8701H20.3C20.1037 28.2215 20.0027 27.5478 20 26.8701C20.0016 25.6606 20.3166 24.4722 20.9142 23.4207C21.5118 22.3692 22.3717 21.4904 23.41 20.8701H14L15.5 16.3701H26.5L27.68 19.9001C28.293 19.964 28.8949 20.1086 29.47 20.3301L27.92 15.8701C27.72 15.2901 27.16 14.8701 26.5 14.8701H15.5ZM26 21.8701C25.9389 21.869 25.8793 21.8894 25.8318 21.9278C25.7842 21.9662 25.7517 22.0201 25.74 22.0801L25.55 23.4001C25.25 23.5301 24.96 23.6901 24.7 23.8701L23.46 23.3701C23.35 23.3701 23.22 23.3701 23.15 23.5001L22.15 25.2301C22.09 25.3401 22.11 25.4701 22.21 25.5501L23.27 26.3701C23.2302 26.7023 23.2302 27.038 23.27 27.3701L22.21 28.1901C22.1651 28.2287 22.1346 28.2814 22.1237 28.3396C22.1128 28.3977 22.1221 28.4579 22.15 28.5101L23.15 30.2401C23.21 30.3701 23.34 30.3701 23.46 30.3701L24.7 29.8701C24.96 30.0501 25.24 30.2201 25.55 30.3401L25.74 31.6601C25.76 31.7801 25.86 31.8701 26 31.8701H28C28.11 31.8701 28.22 31.7801 28.24 31.6601L28.43 30.3401C28.73 30.2101 29 30.0501 29.27 29.8701L30.5 30.3701C30.63 30.3701 30.76 30.3701 30.83 30.2401L31.83 28.5101C31.8579 28.4579 31.8672 28.3977 31.8563 28.3396C31.8454 28.2814 31.8149 28.2287 31.77 28.1901L30.7 27.3701C30.72 27.2001 30.74 27.0401 30.74 26.8701C30.74 26.7001 30.73 26.5401 30.7 26.3701L31.76 25.5501C31.8049 25.5116 31.8354 25.4589 31.8463 25.4007C31.8572 25.3425 31.8479 25.2823 31.82 25.2301L30.82 23.5001C30.76 23.3701 30.63 23.3701 30.5 23.3701L29.27 23.8701C29 23.6901 28.73 23.5201 28.42 23.4001L28.23 22.0801C28.2237 22.0232 28.1969 21.9704 28.1546 21.9318C28.1122 21.8931 28.0573 21.8712 28 21.8701H26ZM15.5 22.8701C15.8978 22.8701 16.2794 23.0282 16.5607 23.3095C16.842 23.5908 17 23.9723 17 24.3701C17 24.7679 16.842 25.1495 16.5607 25.4308C16.2794 25.7121 15.8978 25.8701 15.5 25.8701C15.1022 25.8701 14.7206 25.7121 14.4393 25.4308C14.158 25.1495 14 24.7679 14 24.3701C14 23.9723 14.158 23.5908 14.4393 23.3095C14.7206 23.0282 15.1022 22.8701 15.5 22.8701ZM27 25.3701C27.83 25.3701 28.5 26.0401 28.5 26.8701C28.5 27.7001 27.83 28.3701 27 28.3701C26.16 28.3701 25.5 27.7001 25.5 26.8701C25.5 26.0401 26.17 25.3701 27 25.3701Z" fill="#999999"/>
</g>
<defs>
<filter id="filter0_b_56_2738" x="-4" y="-3.12988" width="50" height="50" filterUnits="userSpaceOnUse" color-interpolation-filters="sRGB">
<feFlood flood-opacity="0" result="BackgroundImageFix"/>
<feGaussianBlur in="BackgroundImageFix" stdDeviation="2"/>
<feComposite in2="SourceAlpha" operator="in" result="effect1_backgroundBlur_56_2738"/>
<feBlend mode="normal" in="SourceGraphic" in2="effect1_backgroundBlur_56_2738" result="shape"/>
</filter>
</defs>
</svg>
