<svg width="54" height="25" viewBox="0 0 54 25" fill="none" xmlns="http://www.w3.org/2000/svg">
<g clip-path="url(#clip0_315_555)">
<path d="M20.5025 1.14233L13.4325 17.9756H8.82014L5.34094 4.54107C5.13 3.71559 4.9467 3.4118 4.30481 3.06275C3.25561 2.49391 1.52297 1.96191 0 1.63096L0.102727 1.14233H7.52857C8.47357 1.14233 9.32449 1.77033 9.54091 2.8577L11.3792 12.5994L15.9178 1.14233H20.5025ZM26.7378 1.14233L23.1301 17.9756H18.7663L22.3744 1.14233H26.7378ZM38.5748 12.4796C38.5929 8.0377 32.4209 7.79117 32.4612 5.80654C32.4759 5.20317 33.0518 4.56086 34.3124 4.39665C34.9367 4.31601 36.6618 4.2518 38.6157 5.15033L39.3801 1.57854C38.3303 1.19959 36.9792 0.834961 35.2987 0.834961C30.985 0.834961 27.9507 3.1217 27.9264 6.39875C27.8982 8.82275 30.0938 10.1737 31.745 10.9811C33.4458 11.8055 34.0162 12.3354 34.0084 13.0722C33.9962 14.2017 32.65 14.7017 31.3985 14.7202C29.2039 14.755 27.9317 14.1282 26.9169 13.6564L26.1248 17.3465C27.1458 17.8135 29.0273 18.2192 30.9762 18.2398C35.562 18.2398 38.5613 15.9792 38.5748 12.4796ZM49.9654 17.9758H54L50.4752 1.14233H46.7528C45.9133 1.14233 45.2077 1.62865 44.8947 2.37622L38.3472 17.9756H42.9294L43.8383 15.4611H49.4366L49.9654 17.9758ZM45.0949 12.0118L47.3924 5.69033L48.7122 12.0118H45.0949ZM32.3226 22.6093H30.5494V24.2562H32.5327V24.7514H29.9521V20.1823H32.431V20.6775H30.5494V22.1211H32.3224L32.3226 22.6093ZM33.4488 19.9385H34.0462V24.7512H33.4488V19.9385ZM35.5535 23.2192C35.567 24.0261 36.0766 24.3581 36.6808 24.3581C37.109 24.3581 37.3737 24.2836 37.5914 24.1889L37.6998 24.616C37.4893 24.7108 37.1227 24.8259 36.5993 24.8259C35.5877 24.8259 34.9834 24.155 34.9834 23.1651C34.9834 22.1756 35.567 21.4025 36.5249 21.4025C37.6049 21.4025 37.8833 22.3383 37.8833 22.9415C37.8833 23.0634 37.8764 23.1514 37.8626 23.2194L35.5535 23.2192ZM37.3058 22.7922C37.3127 22.4196 37.1497 21.8297 36.4772 21.8297C35.8659 21.8297 35.6077 22.3788 35.5601 22.7922H37.3058ZM41.1351 24.636C40.979 24.7108 40.6325 24.8261 40.1912 24.8261C39.1996 24.8261 38.5543 24.155 38.5543 23.1516C38.5543 22.1415 39.2468 21.4028 40.3201 21.4028C40.6732 21.4028 40.9856 21.4905 41.1486 21.579L41.0132 22.0331C40.87 21.9585 40.646 21.8769 40.3201 21.8769C39.566 21.8769 39.1589 22.4396 39.1589 23.1179C39.1589 23.8769 39.6478 24.3446 40.2998 24.3446C40.6394 24.3446 40.8634 24.2634 41.0332 24.1889L41.1351 24.636ZM42.8117 20.684V21.4703H43.6672V21.9242H42.8117V23.6937C42.8117 24.1009 42.9273 24.331 43.2599 24.331C43.4227 24.331 43.5181 24.3177 43.6065 24.2901L43.6337 24.7449C43.5181 24.7853 43.3348 24.8259 43.1038 24.8259C42.8252 24.8259 42.6009 24.731 42.4586 24.5754C42.2955 24.392 42.2276 24.1009 42.2276 23.7143V21.9242H41.718V21.4703H42.2276V20.8602L42.8117 20.684ZM44.5019 22.4941C44.5019 22.1076 44.4947 21.7756 44.4747 21.4703H44.9978L45.0252 22.1209H45.0451C45.1948 21.6806 45.5612 21.4025 45.9618 21.4025C46.0232 21.4025 46.0709 21.4095 46.1253 21.416V21.979C46.0641 21.9651 46.0031 21.9651 45.9211 21.9651C45.5005 21.9651 45.2012 22.2769 45.12 22.7246C45.1059 22.8166 45.0991 22.9095 45.0995 23.0025V24.7516H44.5019V22.4941ZM49.7988 23.0836C49.7988 24.2971 48.9495 24.8259 48.1619 24.8259C47.2787 24.8259 46.5862 24.175 46.5862 23.1381C46.5862 22.0465 47.3129 21.4028 48.2163 21.4028C49.1602 21.4028 49.7988 22.0868 49.7988 23.0836ZM47.1973 23.1179C47.1973 23.8364 47.6048 24.379 48.1889 24.379C48.7597 24.379 49.1873 23.843 49.1873 23.1042C49.1873 22.5484 48.9088 21.8499 48.2024 21.8499C47.5031 21.8499 47.1973 22.5011 47.1973 23.1179ZM50.7146 22.3585C50.7146 22.0131 50.7075 21.7417 50.6872 21.4708H51.2171L51.2511 22.0131H51.2646C51.4276 21.7078 51.8079 21.403 52.3513 21.403C52.8061 21.403 53.5127 21.6741 53.5127 22.799V24.7516H52.9151V22.8602C52.9151 22.3318 52.7181 21.8908 52.1545 21.8908C51.7672 21.8908 51.4614 22.1689 51.3532 22.5009C51.3257 22.5756 51.3122 22.6771 51.3122 22.779V24.7516H50.7146V22.3585Z" fill="#999999"/>
</g>
<defs>
<clipPath id="clip0_315_555">
<rect width="54" height="24" fill="white" transform="translate(0 0.834961)"/>
</clipPath>
</defs>
</svg>
